<svg width="200" height="200" viewBox="0 0 200 200" xmlns="http://www.w3.org/2000/svg">
  <!-- Background -->
  <rect width="100%" height="100%" fill="#f0f0f0"/>

  <!-- Chip Body -->
  <rect x="50" y="50" width="100" height="100" rx="8" ry="8" fill="#333" stroke="#111" stroke-width="4"/>

  <!-- Chip Inner -->
  <rect x="80" y="80" width="40" height="40" rx="4" ry="4" fill="#666"/>

  <!-- Pins -->
  <!-- Top pins -->
  <rect x="65" y="40" width="5" height="10" fill="#999"/>
  <rect x="80" y="40" width="5" height="10" fill="#999"/>
  <rect x="95" y="40" width="5" height="10" fill="#999"/>
  <rect x="110" y="40" width="5" height="10" fill="#999"/>
  <rect x="125" y="40" width="5" height="10" fill="#999"/>

  <!-- Bottom pins -->
  <rect x="65" y="150" width="5" height="10" fill="#999"/>
  <rect x="80" y="150" width="5" height="10" fill="#999"/>
  <rect x="95" y="150" width="5" height="10" fill="#999"/>
  <rect x="110" y="150" width="5" height="10" fill="#999"/>
  <rect x="125" y="150" width="5" height="10" fill="#999"/>

  <!-- Left pins -->
  <rect x="40" y="65" width="10" height="5" fill="#999"/>
  <rect x="40" y="80" width="10" height="5" fill="#999"/>
  <rect x="40" y="95" width="10" height="5" fill="#999"/>
  <rect x="40" y="110" width="10" height="5" fill="#999"/>
  <rect x="40" y="125" width="10" height="5" fill="#999"/>

  <!-- Right pins -->
  <rect x="150" y="65" width="10" height="5" fill="#999"/>
  <rect x="150" y="80" width="10" height="5" fill="#999"/>
  <rect x="150" y="95" width="10" height="5" fill="#999"/>
  <rect x="150" y="110" width="10" height="5" fill="#999"/>
  <rect x="150" y="125" width="10" height="5" fill="#999"/>

  <!-- Sparkle -->
  <g transform="translate(160,40) scale(2)">
    <polygon points="0,-8 2,-2 8,0 2,2 0,8 -2,2 -8,0 -2,-2" fill="#FFD700"/>
  </g>
</svg>
